<?xml version="1.0" encoding="UTF-8" standalone="no"?>
<!-- Created with Inkscape (http://www.inkscape.org/) -->

<svg
   xmlns:dc="http://purl.org/dc/elements/1.1/"
   xmlns:cc="http://creativecommons.org/ns#"
   xmlns:rdf="http://www.w3.org/1999/02/22-rdf-syntax-ns#"
   xmlns:svg="http://www.w3.org/2000/svg"
   xmlns="http://www.w3.org/2000/svg"
   xmlns:inkscape="http://www.inkscape.org/namespaces/inkscape"
   version="1.1"
   width="128"
   height="128"
   id="svg2">
  <defs
     id="defs4">
    <inkscape:path-effect
       effect="envelope"
       id="path-effect3038" />
    <inkscape:path-effect
       effect="spiro"
       id="path-effect3036" />
    <inkscape:path-effect
       effect="bend_path"
       id="path-effect3034" />
  </defs>
  <metadata
     id="metadata7">
    <rdf:RDF>
      <cc:Work
         rdf:about="">
        <dc:format>image/svg+xml</dc:format>
        <dc:type
           rdf:resource="http://purl.org/dc/dcmitype/StillImage" />
        <dc:title></dc:title>
      </cc:Work>
    </rdf:RDF>
  </metadata>
  <g
     transform="translate(0,-924.36218)"
     id="layer1">
    <g
       id="g3015"
       style="fill:#00ff00;fill-opacity:1;fill-rule:evenodd;stroke:#00ff00;stroke-width:4;stroke-linejoin:miter;stroke-miterlimit:4;stroke-opacity:1;stroke-dasharray:none">
      <path
         d="M -5.497222e-7,1051.3707 112.63417,1052.3622 l 15.1244,-0.1385 -98.770747,-0.7708 z"
         id="path3025"
         style="fill:#afafde;fill-rule:evenodd;stroke:none" />
      <path
         d="m -5.497222e-7,980.98163 0,70.38907 28.9878235497222,0.082 0,-58.29103 z"
         id="path3017"
         style="fill:#353564;fill-rule:evenodd;stroke:none" />
      <path
         d="m 28.987823,993.16187 98.770747,-32.49623 0,91.55806 -98.770747,-0.7708 z"
         id="path3027"
         style="fill:#e9e9ff;fill-rule:evenodd;stroke:none" />
      <path
         d="M -5.497222e-7,980.98163 112.63417,926.94667 l 15.1244,33.71897 -98.770747,32.49623 z"
         id="path3019"
         style="fill:#4d4d9f;fill-rule:evenodd;stroke:none" />
      <path
         d="m 112.63417,926.94667 0,125.41553 15.1244,-0.1385 0,-91.55806 z"
         id="path3023"
         style="fill:#d7d7ff;fill-rule:evenodd;stroke:none" />
      <path
         d="M -5.497222e-7,980.98163 112.63417,926.94667 l 0,125.41553 L -5.497222e-7,1051.3707 z"
         id="path3021"
         style="fill:#8686bf;fill-rule:evenodd;stroke:none" />
    </g>
    <path
       d="m 89.327187,16.925888 c -4.681,2.030027 -9.218366,5.315906 -13.504401,9.537011 -4.286093,4.221336 -8.060247,9.23777 -11.393292,14.785055 -3.33308,5.547468 -6.077896,11.610649 -8.22119,18.094785 -2.068179,6.374599 -3.277802,12.993285 -3.446041,20.121909 -0.168252,7.128712 0.610328,13.218058 2.124361,18.723965 1.588811,5.412317 3.831688,10.159577 6.708446,14.174247 2.876725,4.01469 6.283053,7.21484 10.445409,9.52578 4.162302,2.31094 8.95602,3.59662 14.185745,3.495 3.00882,-0.0585 5.720657,-0.34792 8.267363,-0.98846 2.54661,-0.64053 4.77262,-1.49456 6.625733,-2.37951 1.85301,-0.88494 3.39504,-1.65454 4.5864,-2.52938 1.19077,-0.9868 1.994,-1.83408 2.43909,-2.43437 -0.9007,-4.42594 -1.85037,-8.71233 -2.80073,-12.89587 -1.34861,1.34709 -3.45558,2.93466 -6.342404,4.69694 -2.886926,1.76231 -6.637856,2.8067 -11.280831,3.13599 -4.019368,0.28509 -7.552115,-0.44475 -10.611287,-2.16103 -2.988321,-1.72133 -5.542651,-4.19402 -7.533597,-7.28156 -1.988864,-3.179157 -3.463734,-6.945572 -4.466339,-11.248995 -0.931458,-4.314561 -1.370299,-9.014912 -1.255412,-14.387343 0.118558,-5.545634 0.880864,-10.687874 2.170064,-15.571393 1.363046,-4.993697 3.182113,-9.59575 5.49106,-13.732672 2.308894,-4.13675 5.036655,-7.726879 8.156901,-10.762849 3.120177,-3.035767 6.587728,-5.435344 10.275635,-6.877118 1.743309,-0.681399 3.397202,-1.001321 5.006108,-1.111217 1.679769,-0.24073 3.151484,-0.250131 4.445714,-0.01825 1.357888,0.20752 2.540018,0.49911 3.547388,0.851898 1.00725,0.353017 1.74122,0.682732 2.24573,1.126121 1.1562,-4.633929 2.33675,-9.372945 3.5069,-14.232619 -0.33946,-0.299039 -0.96449,-0.653482 -1.91283,-1.135669 -0.94846,-0.481914 -2.24059,-0.883422 -3.87442,-1.064532 -1.56948,-0.208297 -3.436181,-0.183128 -5.747374,0.162412 -2.244689,0.317054 -4.877921,1.098241 -7.837899,2.381722 z M 4.7600323,59.063959 c 0.258499,5.998166 0.1400644,11.59099 9.18e-5,16.921106 -0.1399726,5.330116 -0.3014832,10.397524 -0.4078143,15.413904 -0.106331,5.016379 -0.1574826,9.981731 -0.3554151,15.176771 -0.1979325,5.19504 -0.5426459,10.61978 -1.5147789,16.62397 7.0830483,0.2992 14.4483902,0.35971 21.9715462,0.37174 7.523156,0.012 15.203955,-0.0277 22.913705,-0.0699 0.525702,-3.80484 0.886229,-7.48921 1.151403,-11.09107 -5.877401,0.35414 -11.762477,0.71143 -17.593973,1.05684 -5.831496,0.34541 -11.60932,0.67983 -17.27422,0.9468 0.471746,-5.26066 0.649892,-10.22912 0.784252,-15.113272 0.13436,-4.88415 0.224935,-9.683994 0.351863,-14.567333 0.126929,-4.88334 0.290212,-9.850176 0.400313,-15.028212 0.110101,-5.178035 0.167021,-10.56727 -0.08845,-16.255306 -3.486786,1.841002 -6.9365435,3.715025 -10.3385207,5.614002 z"
       transform="translate(0,924.36218)"
       id="text3029"
       style="font-size:40px;font-style:normal;font-variant:normal;font-weight:normal;font-stretch:normal;line-height:125%;letter-spacing:0px;word-spacing:0px;fill:#00ffff;fill-opacity:1;stroke:#ffffff;stroke-width:3;stroke-miterlimit:4;stroke-opacity:1;stroke-dasharray:none;font-family:Ubuntu;-inkscape-font-specification:Ubuntu" />
  </g>
</svg>
